<svg xmlns="http://www.w3.org/2000/svg" width="470" height="470" viewBox="0 0 470 470" font-family="Segoe UI, Microsoft YaHei, sans-serif">
<rect x="0" y="0" width="470" height="470" fill="#ffffff"/>
<line x1="55.0" y1="415.0" x2="55.0" y2="55.0" stroke="#d8dee9" stroke-width="1" stroke-linecap="round"/>
<line x1="55.0" y1="415.0" x2="415.0" y2="415.0" stroke="#d8dee9" stroke-width="1" stroke-linecap="round"/>
<line x1="145.0" y1="415.0" x2="145.0" y2="55.0" stroke="#d8dee9" stroke-width="1" stroke-linecap="round"/>
<line x1="55.0" y1="325.0" x2="415.0" y2="325.0" stroke="#d8dee9" stroke-width="1" stroke-linecap="round"/>
<line x1="235.0" y1="415.0" x2="235.0" y2="55.0" stroke="#d8dee9" stroke-width="1" stroke-linecap="round"/>
<line x1="55.0" y1="235.0" x2="415.0" y2="235.0" stroke="#d8dee9" stroke-width="1" stroke-linecap="round"/>
<line x1="325.0" y1="415.0" x2="325.0" y2="55.0" stroke="#d8dee9" stroke-width="1" stroke-linecap="round"/>
<line x1="55.0" y1="145.0" x2="415.0" y2="145.0" stroke="#d8dee9" stroke-width="1" stroke-linecap="round"/>
<line x1="415.0" y1="415.0" x2="415.0" y2="55.0" stroke="#d8dee9" stroke-width="1" stroke-linecap="round"/>
<line x1="55.0" y1="55.0" x2="415.0" y2="55.0" stroke="#d8dee9" stroke-width="1" stroke-linecap="round"/>
<line x1="55.0" y1="415.0" x2="415.0" y2="415.0" stroke="#9aa5b1" stroke-width="1.5" stroke-linecap="round" stroke-dasharray="6 4"/>
<line x1="55.0" y1="415.0" x2="55.0" y2="55.0" stroke="#9aa5b1" stroke-width="1.5" stroke-linecap="round" stroke-dasharray="6 4"/>
<polygon points="1.0,0.0 4.0,0.0 4.0,1.0" fill="#dbeafe" fill-opacity="0.65" stroke="#2563eb" stroke-width="2" stroke-linejoin="round"/>
<polygon points="1.0,1.0 1.0,3.0 2.0,3.0" fill="#dcfce7" fill-opacity="0.65" stroke="#16a34a" stroke-width="2" stroke-linejoin="round"/>
<path d="M 404.0 415.0 L 404.0 404.0 L 415.0 404.0" fill="none" stroke="#64748b" stroke-width="1.2"/>
<path d="M 145.0 156.0 L 156.0 156.0 L 156.0 145.0" fill="none" stroke="#64748b" stroke-width="1.2"/>
<line x1="55.0" y1="415.0" x2="325.0" y2="325.0" stroke="#2563eb" stroke-width="2" stroke-linecap="round" stroke-dasharray="5 4"/>
<line x1="55.0" y1="415.0" x2="145.0" y2="235.0" stroke="#ea580c" stroke-width="2" stroke-linecap="round" stroke-dasharray="5 4"/>
<line x1="325.0" y1="325.0" x2="145.0" y2="235.0" stroke="#dc2626" stroke-width="2" stroke-linecap="round" stroke-dasharray="5 4"/>
<path d="M 175.0 415.0 A 30.0 30.0 0 0 0 173.5 405.5" fill="none" stroke="#2563eb" stroke-width="2"/>
<text x="190.4" y="411.6" fill="#2563eb" font-size="15" font-style="italic" text-anchor="middle">∠1</text>
<path d="M 158.4 298.2 A 30.0 30.0 0 0 0 145.0 295.0" fill="none" stroke="#16a34a" stroke-width="2"/>
<text x="155.6" y="274.2" fill="#16a34a" font-size="15" font-style="italic" text-anchor="middle">∠2</text>
<path d="M 97.0 415.0 A 42.0 42.0 0 0 0 94.8 401.7" fill="none" stroke="#2563eb" stroke-width="2"/>
<text x="112.3" y="409.7" fill="#2563eb" font-size="15" font-style="italic" text-anchor="middle">∠1</text>
<path d="M 83.6 357.8 A 64.0 64.0 0 0 0 55.0 351.0" fill="none" stroke="#16a34a" stroke-width="2"/>
<text x="73.4" y="333.1" fill="#16a34a" font-size="15" font-style="italic" text-anchor="middle">∠2</text>
<path d="M 140.4 386.5 A 90.0 90.0 0 0 0 95.2 334.5" fill="none" stroke="#dc2626" stroke-width="2"/>
<text x="135.1" y="343.5" fill="#dc2626" font-size="15" font-style="italic" text-anchor="middle">45°</text>
<circle cx="145.0" cy="415.0" r="5" fill="#2563eb" stroke="#1f2937" stroke-width="1"/>
<text x="153.0" y="435.0" fill="#2563eb" font-size="12">(1,0)</text>
<circle cx="145.0" cy="325.0" r="5" fill="#16a34a" stroke="#1f2937" stroke-width="1"/>
<text x="153.0" y="313.0" fill="#16a34a" font-size="12">(1,1)</text>
<circle cx="55.0" cy="415.0" r="5" fill="#1f2937" stroke="#1f2937" stroke-width="1"/>
<text x="51.0" y="437.0" fill="#111827" font-size="15" font-weight="700">O</text>
<circle cx="325.0" cy="325.0" r="5" fill="#2563eb" stroke="#1f2937" stroke-width="1"/>
<text x="335.0" y="331.0" fill="#2563eb" font-size="15" font-weight="700">A</text>
<circle cx="145.0" cy="235.0" r="5" fill="#ea580c" stroke="#1f2937" stroke-width="1"/>
<text x="127.0" y="229.0" fill="#ea580c" font-size="15" font-weight="700">C</text>
<text x="235.0" y="24" fill="#374151" font-size="15" text-anchor="middle" font-weight="600">4×4 网格 · ∠1、∠2 原图位置与平移构造</text>
<text x="235.0" y="458.0" fill="#6b7280" font-size="12.5" text-anchor="middle">原题：∠1顶点(1,0)、∠2顶点(1,1)；虚线为平移到O的辅助构造，OA与水平夹角=∠1，OC与竖直夹角=∠2，故∠1+∠2=45°。</text>
</svg>