<svg xmlns="http://www.w3.org/2000/svg" width="430" height="460" viewBox="0 0 430 460" font-family="Segoe UI, Microsoft YaHei, sans-serif">
<rect x="0" y="0" width="430" height="460" fill="#ffffff"/>
<text x="215" y="22" fill="#374151" font-size="15" text-anchor="middle" font-weight="600">解答图：平移构造等腰直角三角形 OAB</text>
<line x1="55.0" y1="55.0" x2="55.0" y2="375.0" stroke="#d8dee9" stroke-width="1"/>
<line x1="135.0" y1="55.0" x2="135.0" y2="375.0" stroke="#d8dee9" stroke-width="1"/>
<line x1="215.0" y1="55.0" x2="215.0" y2="375.0" stroke="#d8dee9" stroke-width="1"/>
<line x1="295.0" y1="55.0" x2="295.0" y2="375.0" stroke="#d8dee9" stroke-width="1"/>
<line x1="375.0" y1="55.0" x2="375.0" y2="375.0" stroke="#d8dee9" stroke-width="1"/>
<line x1="55.0" y1="55.0" x2="375.0" y2="55.0" stroke="#d8dee9" stroke-width="1"/>
<line x1="55.0" y1="135.0" x2="375.0" y2="135.0" stroke="#d8dee9" stroke-width="1"/>
<line x1="55.0" y1="215.0" x2="375.0" y2="215.0" stroke="#d8dee9" stroke-width="1"/>
<line x1="55.0" y1="295.0" x2="375.0" y2="295.0" stroke="#d8dee9" stroke-width="1"/>
<line x1="55.0" y1="375.0" x2="375.0" y2="375.0" stroke="#d8dee9" stroke-width="1"/>
<line x1="55.0" y1="375.0" x2="375.0" y2="375.0" stroke="#9aa5b1" stroke-width="1.5" stroke-linecap="round" stroke-dasharray="6 4"/>
<line x1="55.0" y1="375.0" x2="55.0" y2="55.0" stroke="#9aa5b1" stroke-width="1.5" stroke-linecap="round" stroke-dasharray="6 4"/>
<polygon points="55.0,375.0 215.0,375.0 215.0,295.0" fill="#dbeafe" fill-opacity="0.4" stroke="#2563eb" stroke-width="2" stroke-linejoin="round"/>
<path d="M 215.0 295.0 L 135.0 295.0 L 135.0 375.0" fill="none" stroke="#64748b" stroke-width="1.2"/>
<polygon points="55.0,375.0 55.0,135.0 135.0,135.0" fill="#dcfce7" fill-opacity="0.4" stroke="#16a34a" stroke-width="2" stroke-linejoin="round"/>
<path d="M 135.0 135.0 L 135.0 215.0 L 55.0 215.0" fill="none" stroke="#64748b" stroke-width="1.2"/>
<line x1="55.0" y1="375.0" x2="215.0" y2="295.0" stroke="#2563eb" stroke-width="2" stroke-linecap="round" stroke-dasharray="5 4"/>
<line x1="55.0" y1="375.0" x2="135.0" y2="135.0" stroke="#16a34a" stroke-width="2" stroke-linecap="round" stroke-dasharray="5 4"/>
<line x1="215.0" y1="295.0" x2="135.0" y2="135.0" stroke="#dc2626" stroke-width="2" stroke-linecap="round" stroke-dasharray="5 4"/>
<path d="M 175.0 315.0 L 155.0 275.0 L 195.0 255.0" fill="none" stroke="#dc2626" stroke-width="1.2"/>
<path d="M 85.0 375.0 A 30.0 30.0 0 0 0 81.8 361.6" fill="none" stroke="#2563eb" stroke-width="2"/>
<text x="97.8" y="364.9" fill="#2563eb" font-size="14" font-style="italic" text-anchor="middle">α</text>
<path d="M 67.6 412.9 A 40.0 40.0 0 0 0 55.0 415.0" fill="none" stroke="#16a34a" stroke-width="2"/>
<text x="63.6" y="428.3" fill="#16a34a" font-size="14" font-style="italic" text-anchor="middle">β</text>
<path d="M 104.2 399.6 A 55.0 55.0 0 0 0 72.4 427.2" fill="none" stroke="#dc2626" stroke-width="2"/>
<text x="100.2" y="427.1" fill="#dc2626" font-size="14" font-style="italic" text-anchor="middle">45°</text>
<circle cx="55.0" cy="375.0" r="5" fill="#1f2937" stroke="#1f2937" stroke-width="1"/>
<text x="33.0" y="393.0" fill="#111827" font-size="15" text-anchor="start">O</text>
<circle cx="215.0" cy="295.0" r="5" fill="#2563eb" stroke="#1f2937" stroke-width="1"/>
<text x="223.0" y="287.0" fill="#2563eb" font-size="13" text-anchor="start">A(2,1)</text>
<circle cx="135.0" cy="135.0" r="5" fill="#16a34a" stroke="#1f2937" stroke-width="1"/>
<text x="143.0" y="127.0" fill="#16a34a" font-size="13" text-anchor="start">B(1,3)</text>
<text x="135" y="391" fill="#6b7280" font-size="11" text-anchor="middle">2</text>
<text x="223" y="339.0" fill="#6b7280" font-size="11" text-anchor="start">1</text>
<text x="43" y="259.0" fill="#6b7280" font-size="11" text-anchor="end">3</text>
<text x="83.0" y="259.0" fill="#6b7280" font-size="11" text-anchor="end">1</text>
<text x="215.0" y="450" fill="#6b7280" font-size="12.5" text-anchor="middle">OA=√5, OB=√10, AB=√5 → △OAB等腰直角三角形 → ∠AOB=45° → α+β=45°</text>
</svg>