<svg xmlns="http://www.w3.org/2000/svg" width="510" height="380" viewBox="0 0 510 380" font-family="Segoe UI, Microsoft YaHei, sans-serif">
<rect x="0" y="0" width="510" height="380" fill="#ffffff"/>
<text x="255" y="22" fill="#374151" font-size="15" text-anchor="middle" font-weight="600">题图：α 与 β 所在直角三角形</text>
<line x1="55.0" y1="55.0" x2="55.0" y2="295.0" stroke="#d8dee9" stroke-width="1"/>
<line x1="135.0" y1="55.0" x2="135.0" y2="295.0" stroke="#d8dee9" stroke-width="1"/>
<line x1="215.0" y1="55.0" x2="215.0" y2="295.0" stroke="#d8dee9" stroke-width="1"/>
<line x1="295.0" y1="55.0" x2="295.0" y2="295.0" stroke="#d8dee9" stroke-width="1"/>
<line x1="375.0" y1="55.0" x2="375.0" y2="295.0" stroke="#d8dee9" stroke-width="1"/>
<line x1="455.0" y1="55.0" x2="455.0" y2="295.0" stroke="#d8dee9" stroke-width="1"/>
<line x1="55.0" y1="55.0" x2="455.0" y2="55.0" stroke="#d8dee9" stroke-width="1"/>
<line x1="55.0" y1="135.0" x2="455.0" y2="135.0" stroke="#d8dee9" stroke-width="1"/>
<line x1="55.0" y1="215.0" x2="455.0" y2="215.0" stroke="#d8dee9" stroke-width="1"/>
<line x1="55.0" y1="295.0" x2="455.0" y2="295.0" stroke="#d8dee9" stroke-width="1"/>
<polygon points="55.0,295.0 215.0,295.0 215.0,215.0" fill="#dbeafe" fill-opacity="0.5" stroke="#2563eb" stroke-width="2" stroke-linejoin="round"/>
<path d="M 215.0 215.0 L 135.0 215.0 L 135.0 295.0" fill="none" stroke="#64748b" stroke-width="1.2"/>
<polygon points="55.0,215.0 295.0,215.0 295.0,135.0" fill="#dcfce7" fill-opacity="0.5" stroke="#16a34a" stroke-width="2" stroke-linejoin="round"/>
<path d="M 295.0 135.0 L 215.0 135.0 L 215.0 215.0" fill="none" stroke="#64748b" stroke-width="1.2"/>
<path d="M 90.0 295.0 A 35.0 35.0 0 0 0 86.3 279.3" fill="none" stroke="#2563eb" stroke-width="2"/>
<text x="102.7" y="283.7" fill="#2563eb" font-size="14" font-style="italic" text-anchor="middle">α</text>
<path d="M 90.0 215.0 A 35.0 35.0 0 0 0 88.2 203.9" fill="none" stroke="#16a34a" stroke-width="2"/>
<text x="103.4" y="207.2" fill="#16a34a" font-size="14" font-style="italic" text-anchor="middle">β</text>
<circle cx="55.0" cy="295.0" r="4" fill="#2563eb" stroke="#1f2937" stroke-width="1"/>
<text x="35.0" y="313.0" fill="#2563eb" font-size="12" text-anchor="start">O₁</text>
<circle cx="55.0" cy="215.0" r="4" fill="#16a34a" stroke="#1f2937" stroke-width="1"/>
<text x="35.0" y="233.0" fill="#16a34a" font-size="12" text-anchor="start">O₂</text>
<text x="135" y="311" fill="#2563eb" font-size="12" text-anchor="middle">2</text>
<text x="223" y="259.0" fill="#2563eb" font-size="12" text-anchor="start">1</text>
<text x="175.0" y="231" fill="#16a34a" font-size="12" text-anchor="middle">3</text>
<text x="303" y="179.0" fill="#16a34a" font-size="12" text-anchor="start">1</text>
<text x="255.0" y="370" fill="#6b7280" font-size="12.5" text-anchor="middle">α: 直角边1和2(斜边与水平边夹角)  β: 直角边1和3(斜边与水平边夹角)</text>
</svg>