<svg xmlns="http://www.w3.org/2000/svg" width="430" height="380" viewBox="0 0 430 380" font-family="Segoe UI, Microsoft YaHei, sans-serif">
<rect x="0" y="0" width="430" height="380" fill="#ffffff"/>
<text x="215" y="22" fill="#374151" font-size="15" text-anchor="middle" font-weight="600">解答图：等腰直角三角形 △OAB</text>
<line x1="55.0" y1="55.0" x2="55.0" y2="295.0" stroke="#d8dee9" stroke-width="1"/>
<line x1="135.0" y1="55.0" x2="135.0" y2="295.0" stroke="#d8dee9" stroke-width="1"/>
<line x1="215.0" y1="55.0" x2="215.0" y2="295.0" stroke="#d8dee9" stroke-width="1"/>
<line x1="295.0" y1="55.0" x2="295.0" y2="295.0" stroke="#d8dee9" stroke-width="1"/>
<line x1="375.0" y1="55.0" x2="375.0" y2="295.0" stroke="#d8dee9" stroke-width="1"/>
<line x1="55.0" y1="55.0" x2="375.0" y2="55.0" stroke="#d8dee9" stroke-width="1"/>
<line x1="55.0" y1="135.0" x2="375.0" y2="135.0" stroke="#d8dee9" stroke-width="1"/>
<line x1="55.0" y1="215.0" x2="375.0" y2="215.0" stroke="#d8dee9" stroke-width="1"/>
<line x1="55.0" y1="295.0" x2="375.0" y2="295.0" stroke="#d8dee9" stroke-width="1"/>
<polygon points="55.0,295.0 295.0,215.0 135.0,135.0" fill="#ede9fe" fill-opacity="0.4" stroke="#6366f1" stroke-width="2.5" stroke-linejoin="round"/>
<path d="M 167.0 151.0 L 151.0 183.0 L 119.0 167.0" fill="none" stroke="#dc2626" stroke-width="1.2"/>
<text x="175.0" y="273.0" fill="#2563eb" font-size="12" text-anchor="middle" font-weight="600">√10</text>
<text x="81.0" y="219.0" fill="#16a34a" font-size="12" text-anchor="end" font-weight="600">√5</text>
<text x="225.0" y="179.0" fill="#dc2626" font-size="12" text-anchor="start" font-weight="600">√5</text>
<path d="M 91.0 307.0 A 38.0 38.0 0 0 0 72.0 329.0" fill="none" stroke="#dc2626" stroke-width="2"/>
<text x="94.3" y="329.1" fill="#dc2626" font-size="14" font-style="italic" text-anchor="middle">45°</text>
<circle cx="55.0" cy="295.0" r="5" fill="#1f2937" stroke="#1f2937" stroke-width="1"/>
<text x="35.0" y="313.0" fill="#111827" font-size="15" text-anchor="start">O</text>
<circle cx="295.0" cy="215.0" r="5" fill="#2563eb" stroke="#1f2937" stroke-width="1"/>
<text x="303.0" y="207.0" fill="#2563eb" font-size="13" text-anchor="start">A(3,1)</text>
<circle cx="135.0" cy="135.0" r="5" fill="#16a34a" stroke="#1f2937" stroke-width="1"/>
<text x="143.0" y="127.0" fill="#16a34a" font-size="13" text-anchor="start">B(1,2)</text>
<text x="215.0" y="370" fill="#6b7280" font-size="12.5" text-anchor="middle">OB=AB=√5, OB²+AB²=10=OA² → ∠B=90° → 等腰直角三角形 → ∠AOB=45°</text>
</svg>