<svg xmlns="http://www.w3.org/2000/svg" width="430" height="380" viewBox="0 0 430 380" font-family="Segoe UI, Microsoft YaHei, sans-serif">
<rect x="0" y="0" width="430" height="380" fill="#ffffff"/>
<text x="215" y="22" fill="#374151" font-size="15" text-anchor="middle" font-weight="600">题图：4×4 网格中的 ∠AOB</text>
<line x1="55.0" y1="55.0" x2="55.0" y2="295.0" stroke="#d8dee9" stroke-width="1"/>
<line x1="135.0" y1="55.0" x2="135.0" y2="295.0" stroke="#d8dee9" stroke-width="1"/>
<line x1="215.0" y1="55.0" x2="215.0" y2="295.0" stroke="#d8dee9" stroke-width="1"/>
<line x1="295.0" y1="55.0" x2="295.0" y2="295.0" stroke="#d8dee9" stroke-width="1"/>
<line x1="375.0" y1="55.0" x2="375.0" y2="295.0" stroke="#d8dee9" stroke-width="1"/>
<line x1="55.0" y1="55.0" x2="375.0" y2="55.0" stroke="#d8dee9" stroke-width="1"/>
<line x1="55.0" y1="135.0" x2="375.0" y2="135.0" stroke="#d8dee9" stroke-width="1"/>
<line x1="55.0" y1="215.0" x2="375.0" y2="215.0" stroke="#d8dee9" stroke-width="1"/>
<line x1="55.0" y1="295.0" x2="375.0" y2="295.0" stroke="#d8dee9" stroke-width="1"/>
<polygon points="55.0,295.0 295.0,215.0 135.0,135.0" fill="#ede9fe" fill-opacity="0.4" stroke="#6366f1" stroke-width="2" stroke-linejoin="round"/>
<circle cx="55.0" cy="295.0" r="5" fill="#1f2937" stroke="#1f2937" stroke-width="1"/>
<text x="47.0" y="313.0" fill="#111827" font-size="13" text-anchor="start">O(0,0)</text>
<circle cx="295.0" cy="215.0" r="5" fill="#2563eb" stroke="#1f2937" stroke-width="1"/>
<text x="303.0" y="207.0" fill="#2563eb" font-size="13" text-anchor="start">A(3,1)</text>
<circle cx="135.0" cy="135.0" r="5" fill="#16a34a" stroke="#1f2937" stroke-width="1"/>
<text x="143.0" y="127.0" fill="#16a34a" font-size="13" text-anchor="start">B(1,2)</text>
<path d="M 88.2 306.1 A 35.0 35.0 0 0 0 70.7 326.3" fill="none" stroke="#dc2626" stroke-width="2"/>
<text x="92.0" y="327.1" fill="#dc2626" font-size="13" font-style="italic" text-anchor="middle">∠AOB</text>
<text x="215.0" y="370" fill="#6b7280" font-size="12.5" text-anchor="middle">求证：∠AOB = 45°</text>
</svg>